<?xml version="1.0" standalone="no"?><!DOCTYPE svg PUBLIC "-//W3C//DTD SVG 1.1//EN" "http://www.w3.org/Graphics/SVG/1.1/DTD/svg11.dtd"><svg t="1744464435482" class="icon" viewBox="0 0 1024 1024" version="1.1" xmlns="http://www.w3.org/2000/svg" p-id="13671" xmlns:xlink="http://www.w3.org/1999/xlink" width="200" height="200"><path d="M462.464 441.28a189.952 189.952 0 1 0 379.904 0 189.952 189.952 0 0 0-379.904 0zM652.416 197.568a15.36 15.36 0 0 1-15.36-15.36v-38.4a15.36 15.36 0 0 1 15.36-15.36 15.36 15.36 0 0 1 15.36 15.36v38.4a15.36 15.36 0 0 1-15.36 15.36z m-143.36 46.592a15.04 15.04 0 0 1-21.504-3.584l-22.528-30.72a15.04 15.04 0 0 1 3.584-21.504 15.04 15.04 0 0 1 21.504 3.584l22.528 30.72a15.104 15.104 0 0 1-3.584 21.504zM420.48 516.48a15.68 15.68 0 0 1-9.728 19.456l-36.352 11.776a15.68 15.68 0 0 1-19.456-9.728 15.68 15.68 0 0 1 9.728-19.456l36.352-11.776a14.912 14.912 0 0 1 19.456 9.728z m88.576 121.856c6.656 5.12 8.192 14.848 3.584 21.504l-22.528 30.72a16.064 16.064 0 0 1-21.504 3.584 16.064 16.064 0 0 1-3.584-21.504l22.528-30.72a15.104 15.104 0 0 1 21.504-3.584z m143.36 46.592a15.36 15.36 0 0 1 15.36 15.36v38.4a15.36 15.36 0 0 1-15.36 15.36 15.36 15.36 0 0 1-15.36-15.36v-38.4c0-8.704 6.656-15.36 15.36-15.36z m143.36-46.592a15.04 15.04 0 0 1 21.504 3.584l22.528 30.72a15.04 15.04 0 0 1-3.584 21.504 15.04 15.04 0 0 1-21.504-3.584l-22.528-30.72a15.104 15.104 0 0 1 3.584-21.504z m88.576-121.856c2.56-8.192 11.264-12.8 19.456-9.728l36.352 11.776c8.192 2.56 12.8 11.264 9.728 19.456a14.912 14.912 0 0 1-19.456 9.728l-36.352-11.776a15.296 15.296 0 0 1-9.728-19.456z m0-150.528a15.68 15.68 0 0 1 9.728-19.456l36.352-11.776a15.68 15.68 0 0 1 19.456 9.728 15.68 15.68 0 0 1-9.728 19.456l-36.352 11.776a15.296 15.296 0 0 1-19.456-9.728z m-88.576-121.856a16.064 16.064 0 0 1-3.584-21.504l22.528-30.72a16.064 16.064 0 0 1 21.504-3.584c6.656 5.12 8.192 14.848 3.584 21.504l-22.528 30.72c-5.12 6.656-14.848 8.704-21.504 3.584z" fill="#EDA915" p-id="13672"></path><path d="M846.464 676.288c0-94.208-80.896-171.008-180.224-171.008-99.328 0-180.224 76.288-180.224 171.008v171.008h182.272c98.304-1.536 178.176-77.312 178.176-171.008z" fill="#EAEAEA" p-id="13673"></path><path d="M732.8 668.096c0-54.272-24.576-102.912-62.976-136.192 0.512-5.12 1.024-10.24 1.024-15.36 0-98.816-80.896-179.2-180.224-179.2a179.968 179.968 0 0 0-180.224 179.2c0 1.536 0 3.584 0.512 5.12a167.232 167.232 0 0 0-74.752-17.408 171.328 171.328 0 1 0-5.632 342.528v0.512H561.28v-0.512a179.52 179.52 0 0 0 171.52-178.688z" fill="#F7F7F7" p-id="13674"></path></svg>