<?xml version="1.0" standalone="no"?><!DOCTYPE svg PUBLIC "-//W3C//DTD SVG 1.1//EN" "http://www.w3.org/Graphics/SVG/1.1/DTD/svg11.dtd"><svg t="1744474792976" class="icon" viewBox="0 0 1024 1024" version="1.1" xmlns="http://www.w3.org/2000/svg" p-id="3942" xmlns:xlink="http://www.w3.org/1999/xlink" width="200" height="200"><path d="M509.44 293.888c-8.704 0-15.872-7.168-15.872-15.872v-38.912c0-8.704 7.168-15.872 15.872-15.872 8.704 0 15.872 7.168 15.872 15.872v38.912c0 8.704-7.168 15.872-15.872 15.872zM363.52 340.992c-6.656 5.12-16.896 3.584-22.016-3.584l-23.04-31.744c-5.12-6.656-3.584-16.896 3.584-22.016 6.656-5.12 16.896-3.584 22.016 3.584l23.04 31.744c4.608 7.168 3.072 17.408-3.584 22.016zM272.896 465.92c-2.56 8.192-11.776 12.8-19.968 10.24l-36.864-12.288c-8.192-2.56-12.8-11.776-10.24-19.968s11.776-12.8 19.968-10.24l36.864 12.288c8.192 2.56 12.8 11.264 10.24 19.968zM745.984 465.92c-2.56-8.192 2.048-16.896 10.24-19.968l36.864-12.288c8.192-2.56 16.896 2.048 19.968 10.24s-2.048 16.896-10.24 19.968l-36.864 12.288c-8.192 2.56-16.896-2.048-19.968-10.24zM655.36 340.992c-6.656-5.12-8.704-15.36-3.584-22.016l23.04-31.744c5.12-6.656 15.36-8.704 22.016-3.584 6.656 5.12 8.704 15.36 3.584 22.016l-23.04 31.744c-4.608 7.68-14.848 9.216-22.016 3.584zM702.976 548.864V542.72c0-107.008-87.04-194.048-194.048-194.048s-194.048 87.04-194.048 194.048v6.144h388.096z" fill="#ea9518" p-id="3943" data-spm-anchor-id="a313x.search_index.0.i0.3c043a81De3t32" class=""></path><path d="M615.424 623.616c13.312-0.512 23.552-8.704 23.552-19.456 0-10.752-10.752-19.456-24.064-19.456H243.712c-13.312 0-24.064 8.704-24.064 19.456 0 10.24 10.24 18.944 23.552 19.456h372.224zM790.528 697.856c13.312-0.512 23.552-8.704 23.552-19.456 0-10.752-10.752-19.456-24.064-19.456H418.816c-13.312 0-24.064 8.704-24.064 19.456 0 10.24 10.24 18.944 23.552 19.456h372.224zM625.664 768.512c13.312-0.512 23.552-8.704 23.552-19.456 0-10.752-10.752-19.456-24.064-19.456H253.952c-13.312 0-24.064 8.704-24.064 19.456 0 10.24 10.24 18.944 23.552 19.456h372.224z" fill="#D8D8D8" p-id="3944"></path></svg>